# xmcd
#
# Track frame offsets: 
#        150
#        1868
#        17152
#        18358
#        40722
#        55313
#        55733
#        72326
#        94708
#        95657
#        113482
#        134712
#        135110
#        158313
#        175351
#        206926
#
# Disc length: 2776 seconds
#
# Revision: 0
# Processed by: cddbd v1.5.2PL0 Copyright (c) Steve Scherf et al.
# Submitted via: ExactAudioCopy v0.95b4
#
DISCID=cb0ad610
DTITLE=Various Artist - Dodge - Grab Life By The Horns Tour
DYEAR=2003
DGENRE=Country
TTITLE0=Intro 1
TTITLE1=Cooder Graw - Llano Estacado
TTITLE2=Intro 2
TTITLE3=Pat Green - Southbound 35
TTITLE4=Cross Canadian Ragweed - 42 Miles
TTITLE5=Intro 3
TTITLE6=Jason Boland - Mexico Or Crazy
TTITLE7=Pat Green - Nightmare
TTITLE8=Intro 4
TTITLE9=Kevin Fowler - 100% Texan
TTITLE10=Cooder Graw - State Line
TTITLE11=Intro 5
TTITLE12=Jason  Boland - Somewhere Down In Texas
TTITLE13=Cross Canadian Ragweed - Long Way Home
TTITLE14=Kevin Fowler - Beer, Bait, and Ammo
TTITLE15=Outro
EXTD=
EXTT0=
EXTT1=
EXTT2=
EXTT3=
EXTT4=
EXTT5=
EXTT6=
EXTT7=
EXTT8=
EXTT9=
EXTT10=
EXTT11=
EXTT12=
EXTT13=
EXTT14=
EXTT15=
PLAYORDER=
